<?xml version="1.0" standalone="no"?>
<!DOCTYPE svg PUBLIC "-//W3C//DTD SVG 20010904//EN"
 "http://www.w3.org/TR/2001/REC-SVG-20010904/DTD/svg10.dtd">
<svg version="1.0" xmlns="http://www.w3.org/2000/svg"
 width="700.000000pt" height="700.000000pt" viewBox="0 0 700.000000 700.000000"
 preserveAspectRatio="xMidYMid meet">
<metadata>
Created by potrace 1.11, written by Peter Selinger 2001-2013
</metadata>
<g transform="translate(0.000000,700.000000) scale(0.100000,-0.100000)"
fill="#000000" stroke="none">
<path d="M0 3500 l0 -3500 3500 0 3500 0 0 3500 0 3500 -3500 0 -3500 0 0
-3500z m6360 2859 c4 -6 5 -5699 1 -5719 -1 -7 -5704 -6 -5716 2 -15 9 -13
5707 2 5716 14 9 5706 10 5713 1z"/>
<path d="M1272 5408 l1 -318 953 0 954 0 1 30 c0 17 0 154 0 305 0 151 0 282
0 290 -1 13 -116 15 -955 13 l-954 -1 0 -319z"/>
<path d="M3820 5681 c-1 -46 -1 -555 0 -578 0 -10 198 -13 954 -13 l953 0 1
319 0 318 -954 1 -954 0 0 -47z"/>
<path d="M1288 4452 c-14 -3 -16 -40 -16 -318 l0 -314 27 -1 c166 -4 1873 0
1878 4 4 5 8 480 4 607 l-1 25 -938 0 c-516 0 -945 -1 -954 -3z"/>
<path d="M3820 4415 c-3 -291 -1 -588 4 -592 4 -4 1787 -8 1887 -4 15 1 16 32
15 318 l-1 318 -952 0 -953 0 0 -40z"/>
<path d="M1274 3181 c-7 -8 -4 -631 4 -632 4 -1 433 -2 955 -3 l947 -1 1 25
c3 107 0 602 -3 606 -6 5 -1898 10 -1904 5z"/>
<path d="M3868 3182 l-48 -3 0 -52 c-1 -29 -2 -170 -3 -314 -2 -226 0 -262 13
-265 13 -3 1856 -2 1886 1 9 1 12 88 12 316 l0 315 -142 0 c-77 0 -485 2 -906
3 -421 1 -786 1 -812 -1z"/>
<path d="M1272 1591 l1 -318 953 0 c875 -1 954 1 955 16 1 20 1 545 0 589 l-1
32 -954 0 -954 0 0 -319z"/>
<path d="M3820 1898 c-1 -27 -1 -506 0 -564 l0 -62 953 2 952 1 1 318 2 317
-954 0 c-756 0 -954 -3 -954 -12z"/>
</g>
</svg>
